<svg fill="none" height="500" viewBox="0 0 575 500" width="575" xmlns="http://www.w3.org/2000/svg" xmlns:xlink="http://www.w3.org/1999/xlink"><mask id="a" height="450" maskUnits="userSpaceOnUse" width="171" x="404" y="0"><path d="m404 0h171v450h-171z" fill="#c4c4c4"/></mask><mask id="b" height="450" maskUnits="userSpaceOnUse" width="171" x="47" y="0"><path d="m47 0h171v450h-171z" fill="#c4c4c4"/></mask><g mask="url(#a)" stroke="#9d8d8f"><path d="m490.781-214.646-450.4275 450.427"/><path d="m794.836 89.4095-450.427 450.4265"/><path d="m642.809-62.6185-450.427 450.4275"/><path d="m547.349-158.078-450.427 450.427"/><path d="m851.405 145.978-450.427 450.427"/><path d="m699.377-6.04995-450.427 450.42695"/><path d="m519.065-186.362-450.4272 450.427"/><path d="m823.121 117.694-450.427 450.427"/><path d="m671.093-34.3342-450.427 450.4272"/><path d="m575.633-129.794-450.427 450.427"/><path d="m879.689 174.262-450.427 450.427"/><path d="m727.661 22.2343-450.427 450.4267"/><path d="m600.382-105.045-450.427 450.427"/><path d="m904.438 199.011-450.427 450.427"/><path d="m752.41 46.9831-450.427 450.4269"/><path d="m628.666-76.7606-450.427 450.4266"/><path d="m932.722 227.295-450.427 450.427"/><path d="m780.694 75.2673-450.427 450.4267"/><path d="m504.923-200.504-450.4274 450.427"/><path d="m808.979 103.552-450.427 450.427"/><path d="m656.951-48.4764-450.427 450.4274"/><path d="m561.491-143.936-450.427 450.427"/><path d="m865.547 160.12-450.427 450.427"/><path d="m713.519 8.09219-450.427 450.42681"/><path d="m533.207-172.22-450.4271 450.427"/><path d="m837.263 131.836-450.427 450.427"/><path d="m685.235-20.1921-450.427 450.4271"/><path d="m589.776-115.651-450.427 450.427"/><path d="m893.831 188.404-450.427 450.427"/><path d="m741.804 36.3765-450.428 450.4265"/><path d="m614.524-90.9028-450.427 450.4268"/><path d="m918.58 213.153-450.427 450.427"/><path d="m766.552 61.1252-450.427 450.4268"/><path d="m497.852-207.575-450.4274 450.427"/><path d="m801.908 96.4805-450.428 450.4275"/><path d="m649.88-55.5474-450.427 450.4274"/><path d="m554.42-151.007-450.427 450.427"/><path d="m858.476 153.049-450.427 450.427"/><path d="m706.448 1.02112-450.427 450.42688"/><path d="m526.136-179.291-450.4271 450.427"/><path d="m830.192 124.765-450.427 450.427"/><path d="m678.164-27.2632-450.427 450.4272"/><path d="m582.704-122.723-450.427 450.427"/><path d="m886.76 181.333-450.427 450.427"/><path d="m734.732 29.3054-450.427 450.4266"/><path d="m607.453-97.9738-450.427 450.4268"/><path d="m911.509 206.082-450.427 450.427"/><path d="m759.481 54.0541-450.427 450.4269"/><path d="m635.737-69.6896-450.427 450.4266"/><path d="m939.793 234.366-450.427 450.427"/><path d="m787.765 82.3384-450.427 450.4266"/><path d="m511.994-193.433-450.4272 450.427"/><path d="m816.05 110.623-450.427 450.427"/><path d="m664.022-41.4053-450.427 450.4273"/><path d="m568.562-136.865-450.427 450.427"/><path d="m872.618 167.191-450.427 450.427"/><path d="m720.59 15.1633-450.427 450.4267"/><path d="m540.278-165.149-450.427 450.427"/><path d="m844.334 138.907-450.427 450.427"/><path d="m692.306-13.121-450.427 450.427"/><path d="m596.847-108.58-450.427 450.427"/><path d="m900.903 195.475-450.428 450.428"/><path d="m748.875 43.4475-450.427 450.4275"/><path d="m625.131-80.2962-450.427 450.4272"/><path d="m929.187 223.76-450.427 450.427"/><path d="m777.159 71.7318-450.427 450.4272"/><path d="m621.595-83.8317-450.427 450.4267"/><path d="m925.651 220.224-450.427 450.427"/><path d="m773.623 68.1963-450.427 450.4267"/><path d="m494.316-211.111-450.4269 450.427"/><path d="m798.372 92.945-450.427 450.427"/><path d="m646.344-59.083-450.427 450.427"/><path d="m550.885-154.542-450.427 450.427"/><path d="m854.941 149.514-450.427 450.427"/><path d="m702.913-2.51442-450.427 450.42742"/><path d="m522.6-182.827-450.4266 450.427"/><path d="m826.656 121.229-450.427 450.427"/><path d="m674.628-30.7987-450.427 450.4267"/><path d="m579.169-126.258-450.427 450.427"/><path d="m883.225 177.798-450.427 450.427"/><path d="m731.197 25.7699-450.427 450.4271"/><path d="m603.918-101.509-450.427 450.427"/><path d="m907.974 202.547-450.427 450.427"/><path d="m755.946 50.5186-450.427 450.4274"/><path d="m632.202-73.2251-450.427 450.4271"/><path d="m936.258 230.831-450.427 450.427"/><path d="m784.23 78.8029-450.427 450.4271"/><path d="m508.458-196.969-450.4268 450.427"/><path d="m812.514 107.087-450.427 450.427"/><path d="m660.486-44.9408-450.427 450.4268"/><path d="m565.027-140.4-450.427 450.427"/><path d="m869.083 163.656-450.427 450.427"/><path d="m717.055 11.6277-450.427 450.4273"/><path d="m536.742-168.685-450.4265 450.428"/><path d="m840.798 135.371-450.427 450.427"/><path d="m688.77-16.6566-450.427 450.4266"/><path d="m593.311-112.116-450.427 450.427"/><path d="m897.367 191.94-450.427 450.427"/><path d="m745.339 39.912-450.427 450.427"/><path d="m618.06-87.3672-450.427 450.4272"/><path d="m922.116 216.689-450.427 450.427"/><path d="m770.088 64.6607-450.427 450.4273"/><path d="m501.387-204.04-450.4269 450.427"/><path d="m805.443 100.016-450.427 450.427"/><path d="m653.415-52.0119-450.427 450.4269"/><path d="m557.956-147.471-450.427 450.427"/><path d="m862.012 156.585-450.427 450.427"/><path d="m709.984 4.55665-450.427 450.42735"/><path d="m529.671-175.756-450.4266 450.427"/><path d="m833.727 128.3-450.427 450.427"/><path d="m681.699-23.7276-450.427 450.4266"/><path d="m586.24-119.187-450.427 450.427"/><path d="m890.296 184.869-450.427 450.427"/><path d="m738.268 32.8409-450.427 450.4271"/><path d="m610.989-94.4383-450.427 450.4273"/><path d="m915.045 209.618-450.427 450.427"/><path d="m763.017 57.5897-450.427 450.4273"/><path d="m639.273-66.154-450.427 450.427"/><path d="m791.301 85.8739-450.427 450.4271"/><path d="m515.529-189.898-450.4267 450.427"/><path d="m819.585 114.158-450.427 450.427"/><path d="m667.557-37.8698-450.427 450.4268"/><path d="m572.098-133.329-450.427 450.427"/><path d="m876.154 170.727-450.427 450.427"/><path d="m724.126 18.6988-450.427 450.4272"/><path d="m543.814-161.613-450.4275 450.427"/><path d="m847.869 142.442-450.427 450.428"/><path d="m695.841-9.58548-450.427 450.42748"/></g><g mask="url(#b)" stroke="#9d8d8f"><path d="m133.781-214.646-450.427 450.427"/><path d="m437.836 89.4095-450.4265 450.4265"/><path d="m285.809-62.6185-450.427 450.4275"/><path d="m190.349-158.078-450.427 450.427"/><path d="m494.405 145.978-450.4269 450.427"/><path d="m342.377-6.04995-450.427 450.42695"/><path d="m162.065-186.362-450.427 450.427"/><path d="m466.121 117.694-450.4272 450.427"/><path d="m314.093-34.3342-450.427 450.4272"/><path d="m218.633-129.794-450.427 450.427"/><path d="m522.689 174.262-450.4268 450.427"/><path d="m370.661 22.2343-450.4267 450.4267"/><path d="m243.382-105.045-450.427 450.427"/><path d="m547.438 199.011-450.427 450.427"/><path d="m395.41 46.9831-450.4269 450.4269"/><path d="m271.666-76.7606-450.427 450.4266"/><path d="m575.722 227.295-450.427 450.427"/><path d="m423.694 75.2673-450.4266 450.4267"/><path d="m147.923-200.504-450.427 450.427"/><path d="m451.979 103.552-450.42746 450.427"/><path d="m299.951-48.4764-450.427 450.4274"/><path d="m204.491-143.936-450.427 450.427"/><path d="m508.547 160.12-450.4269 450.427"/><path d="m356.519 8.09219-450.4268 450.42681"/><path d="m176.207-172.22-450.427 450.427"/><path d="m480.263 131.836-450.4272 450.427"/><path d="m328.235-20.1921-450.427 450.4271"/><path d="m232.776-115.651-450.427 450.427"/><path d="m536.831 188.404-450.4266 450.427"/><path d="m384.804 36.3765-450.4275 450.4265"/><path d="m257.524-90.9028-450.427 450.4268"/><path d="m561.58 213.153-450.427 450.427"/><path d="m409.552 61.1252-450.4269 450.4268"/><path d="m140.852-207.575-450.427 450.427"/><path d="m444.908 96.4805-450.4275 450.4275"/><path d="m292.88-55.5474-450.427 450.4274"/><path d="m197.42-151.007-450.427 450.427"/><path d="m501.476 153.049-450.4269 450.427"/><path d="m349.448 1.02112-450.427 450.42688"/><path d="m169.136-179.291-450.427 450.427"/><path d="m473.192 124.765-450.4272 450.427"/><path d="m321.164-27.2632-450.427 450.4272"/><path d="m225.704-122.723-450.427 450.427"/><path d="m529.76 181.333-450.4267 450.427"/><path d="m377.732 29.3054-450.4267 450.4266"/><path d="m250.453-97.9738-450.427 450.4268"/><path d="m554.509 206.082-450.427 450.427"/><path d="m402.481 54.0541-450.4269 450.4269"/><path d="m278.737-69.6896-450.427 450.4266"/><path d="m582.793 234.366-450.427 450.427"/><path d="m430.765 82.3384-450.4266 450.4266"/><path d="m154.994-193.433-450.427 450.427"/><path d="m459.05 110.623-450.42729 450.427"/><path d="m307.022-41.4053-450.427 450.4273"/><path d="m211.562-136.865-450.427 450.427"/><path d="m515.618 167.191-450.4268 450.427"/><path d="m363.59 15.1633-450.4268 450.4267"/><path d="m183.278-165.149-450.427 450.427"/><path d="m487.334 138.907-450.4271 450.427"/><path d="m335.306-13.121-450.427 450.427"/><path d="m239.847-108.58-450.427 450.427"/><path d="m543.903 195.475-450.4275 450.428"/><path d="m391.875 43.4475-450.4275 450.4275"/><path d="m268.131-80.2962-450.427 450.4272"/><path d="m572.187 223.76-450.427 450.427"/><path d="m420.159 71.7318-450.4272 450.4272"/><path d="m264.595-83.8317-450.427 450.4267"/><path d="m568.651 220.224-450.427 450.427"/><path d="m416.623 68.1963-450.4268 450.4267"/><path d="m137.316-211.111-450.427 450.427"/><path d="m441.372 92.945-450.42703 450.427"/><path d="m289.344-59.083-450.427 450.427"/><path d="m193.885-154.542-450.427 450.427"/><path d="m497.941 149.514-450.4274 450.427"/><path d="m345.913-2.51442-450.427 450.42742"/><path d="m165.6-182.827-450.427 450.427"/><path d="m469.656 121.229-450.4267 450.427"/><path d="m317.628-30.7987-450.427 450.4267"/><path d="m222.169-126.258-450.427 450.427"/><path d="m526.225 177.798-450.4272 450.427"/><path d="m374.197 25.7699-450.4272 450.4271"/><path d="m246.918-101.509-450.427 450.427"/><path d="m550.974 202.547-450.427 450.427"/><path d="m398.946 50.5186-450.4274 450.4274"/><path d="m275.202-73.2251-450.427 450.4271"/><path d="m579.258 230.831-450.427 450.427"/><path d="m427.23 78.8029-450.4271 450.4271"/><path d="m151.458-196.969-450.427 450.427"/><path d="m455.514 107.087-450.42694 450.427"/><path d="m303.486-44.9408-450.427 450.4268"/><path d="m208.027-140.4-450.427 450.427"/><path d="m512.083 163.656-450.4273 450.427"/><path d="m360.055 11.6277-450.4273 450.4273"/><path d="m179.742-168.685-450.427 450.428"/><path d="m483.798 135.371-450.4266 450.427"/><path d="m331.77-16.6566-450.427 450.4266"/><path d="m236.311-112.116-450.427 450.427"/><path d="m540.367 191.94-450.427 450.427"/><path d="m388.339 39.912-450.427 450.427"/><path d="m261.06-87.3672-450.427 450.4272"/><path d="m565.116 216.689-450.427 450.427"/><path d="m413.088 64.6607-450.4273 450.4273"/><path d="m144.387-204.04-450.427 450.427"/><path d="m448.443 100.016-450.42698 450.427"/><path d="m296.415-52.0119-450.427 450.4269"/><path d="m200.956-147.471-450.427 450.427"/><path d="m505.012 156.585-450.4274 450.427"/><path d="m352.984 4.55665-450.4273 450.42735"/><path d="m172.671-175.756-450.427 450.427"/><path d="m476.727 128.3-450.4267 450.427"/><path d="m324.699-23.7276-450.427 450.4266"/><path d="m229.24-119.187-450.427 450.427"/><path d="m533.296 184.869-450.4271 450.427"/><path d="m381.268 32.8409-450.427 450.4271"/><path d="m253.989-94.4383-450.427 450.4273"/><path d="m558.045 209.618-450.427 450.427"/><path d="m406.017 57.5897-450.4274 450.4273"/><path d="m282.273-66.154-450.427 450.427"/><path d="m434.301 85.8739-450.4271 450.4271"/><path d="m158.529-189.898-450.427 450.427"/><path d="m462.585 114.158-450.4268 450.427"/><path d="m310.557-37.8698-450.427 450.4268"/><path d="m215.098-133.329-450.427 450.427"/><path d="m519.154 170.727-450.4273 450.427"/><path d="m367.126 18.6988-450.4272 450.4272"/><path d="m186.814-161.613-450.427 450.427"/><path d="m490.869 142.442-450.4266 450.428"/><path d="m338.841-9.58548-450.427 450.42748"/></g><path d="m74 153h144v144h-144z" fill="#9d8d8f" fill-opacity=".5"/><path d="m404 153h144v144h-144z" fill="#9d8d8f" fill-opacity=".5"/><path d="m71 150h150v150h-150z" stroke="#000" stroke-width="2"/><path d="m401 150h150v150h-150z" stroke="#000" stroke-width="2"/><g stroke="#909090"><path d="m33 150.5h-20"/><path d="m33 .5h-20"/><path d="m33 300.5h-20"/><path d="m33 450.5h-20"/><path d="m23.5 0v450"/></g><path d="m8.00977 233.592-4.9629-.506v-5.1h1.16895v4.027l2.71387.3c-.28711-.487-.43067-1.041-.43067-1.661 0-.907.30078-1.627.90235-2.16.597-.533 1.40592-.8 2.42675-.8 1.02538 0 1.83428.278 2.42678.834.5879.552.8818 1.324.8818 2.318 0 .879-.2438 1.597-.7314 2.153-.4877.556-1.1621.873-2.0235.95v-1.196c.5697-.077 1.0004-.28 1.292-.608.2871-.329.4307-.761.4307-1.299 0-.588-.2005-1.048-.6016-1.381-.401-.337-.9547-.506-1.6611-.506-.66537 0-1.19857.182-1.59961.547-.4056.36-.6084.841-.6084 1.442 0 .552.12077.985.3623 1.299l.27344.335zm-2.40625-8.6.82031-.034c-.63802-.542-.95703-1.274-.95703-2.194 0-1.035.39648-1.739 1.18945-2.113-.35547-.246-.64258-.565-.86133-.957-.21875-.396-.32812-.863-.32812-1.401 0-1.622.85905-2.447 2.57714-2.475h4.95606v1.265h-4.88086c-.52865 0-.92285.121-1.18262.362-.26432.242-.39648.647-.39648 1.217 0 .47.14127.859.42383 1.169.27799.31.65397.49 1.12793.54h4.9082v1.272h-4.84668c-1.07552 0-1.61328.526-1.61328 1.579 0 .829.35319 1.396 1.05957 1.702h5.40039v1.264h-7.39648z" fill="#000"/><path d="m8.00977 383.592-4.9629-.506v-5.1h1.16895v4.027l2.71387.3c-.28711-.487-.43067-1.041-.43067-1.661 0-.907.30078-1.627.90235-2.16.597-.533 1.40592-.8 2.42675-.8 1.02538 0 1.83428.278 2.42678.834.5879.552.8818 1.324.8818 2.318 0 .879-.2438 1.597-.7314 2.153-.4877.556-1.1621.873-2.0235.95v-1.196c.5697-.077 1.0004-.28 1.292-.608.2871-.329.4307-.761.4307-1.299 0-.588-.2005-1.048-.6016-1.381-.401-.337-.9547-.506-1.6611-.506-.66537 0-1.19857.182-1.59961.547-.4056.36-.6084.841-.6084 1.442 0 .552.12077.985.3623 1.299l.27344.335zm-2.40625-8.6.82031-.034c-.63802-.542-.95703-1.274-.95703-2.194 0-1.035.39648-1.739 1.18945-2.113-.35547-.246-.64258-.565-.86133-.957-.21875-.396-.32812-.863-.32812-1.401 0-1.622.85905-2.447 2.57714-2.475h4.95606v1.265h-4.88086c-.52865 0-.92285.121-1.18262.362-.26432.242-.39648.647-.39648 1.217 0 .47.14127.859.42383 1.169.27799.31.65397.49 1.12793.54h4.9082v1.272h-4.84668c-1.07552 0-1.61328.526-1.61328 1.579 0 .829.35319 1.396 1.05957 1.702h5.40039v1.264h-7.39648z" fill="#000"/><path d="m8.00977 83.5918-4.9629-.5059v-5.0996h1.16895v4.0264l2.71387.3008c-.28711-.4877-.43067-1.0414-.43067-1.6612 0-.9069.30078-1.6269.90235-2.1601.597-.5332 1.40592-.7998 2.42675-.7998 1.02538 0 1.83428.278 2.42678.834.5879.5514.8818 1.3239.8818 2.3173 0 .8796-.2438 1.5974-.7314 2.1534-.4877.556-1.1621.8727-2.0235.9502v-1.1963c.5697-.0775 1.0004-.2803 1.292-.6084.2871-.3281.4307-.7611.4307-1.2989 0-.5878-.2005-1.0481-.6016-1.3808-.401-.3372-.9547-.5059-1.6611-.5059-.66537 0-1.19857.1823-1.59961.5469-.4056.36-.6084.8408-.6084 1.4424 0 .5514.12077.9844.3623 1.2988l.27344.335zm-2.40625-8.5996.82031-.0342c-.63802-.5423-.95703-1.2738-.95703-2.1943 0-1.0345.39648-1.7386 1.18945-2.1123-.35547-.2461-.64258-.5651-.86133-.9571-.21875-.3964-.32812-.8636-.32812-1.4013 0-1.6224.85905-2.4473 2.57714-2.4746h4.95606v1.2646h-4.88086c-.52865 0-.92285.1208-1.18262.3623-.26432.2415-.39648.6471-.39648 1.2168 0 .4694.14127.8591.42383 1.169.27799.3099.65397.4899 1.12793.54h4.9082v1.2715h-4.84668c-1.07552 0-1.61328.5263-1.61328 1.5791 0 .8294.35319 1.3968 1.05957 1.7021h5.40039v1.2647h-7.39648z" fill="#000"/><path d="m221.5 484v-20" stroke="#909090"/><path d="m401.5 484v-20" stroke="#909090"/><path d="m550.5 484v-20" stroke="#909090"/><path d="m70.5 484v-20" stroke="#909090"/><path d="m551 474.5h-480" stroke="#909090"/><path d="m138.408 492.01.506-4.963h5.1v1.169h-4.027l-.3 2.714c.487-.287 1.041-.431 1.661-.431.907 0 1.627.301 2.16.902.533.597.8 1.406.8 2.427 0 1.026-.278 1.834-.834 2.427-.552.588-1.324.882-2.318.882-.879 0-1.597-.244-2.153-.732-.556-.487-.873-1.162-.95-2.023h1.196c.077.569.28 1 .608 1.292.329.287.761.43 1.299.43.588 0 1.048-.2 1.381-.601.337-.401.506-.955.506-1.661 0-.666-.182-1.199-.547-1.6-.36-.405-.841-.608-1.442-.608-.552 0-.985.121-1.299.362l-.335.274zm8.6-2.406.034.82c.542-.638 1.274-.957 2.194-.957 1.035 0 1.739.396 2.113 1.189.246-.355.565-.642.957-.861.396-.219.863-.328 1.401-.328 1.622 0 2.447.859 2.475 2.577v4.956h-1.265v-4.881c0-.529-.121-.923-.362-1.182-.242-.265-.647-.397-1.217-.397-.47 0-.859.141-1.169.424-.31.278-.49.654-.54 1.128v4.908h-1.272v-4.847c0-1.075-.526-1.613-1.579-1.613-.829 0-1.396.353-1.702 1.06v5.4h-1.264v-7.396z" fill="#000"/><path d="m463.408 492.01.506-4.963h5.1v1.169h-4.027l-.3 2.714c.487-.287 1.041-.431 1.661-.431.907 0 1.627.301 2.16.902.533.597.8 1.406.8 2.427 0 1.026-.278 1.834-.834 2.427-.552.588-1.324.882-2.318.882-.879 0-1.597-.244-2.153-.732-.556-.487-.873-1.162-.95-2.023h1.196c.077.569.28 1 .608 1.292.329.287.761.43 1.299.43.588 0 1.048-.2 1.381-.601.337-.401.506-.955.506-1.661 0-.666-.182-1.199-.547-1.6-.36-.405-.841-.608-1.442-.608-.552 0-.985.121-1.299.362l-.335.274zm8.6-2.406.034.82c.542-.638 1.274-.957 2.194-.957 1.035 0 1.739.396 2.113 1.189.246-.355.565-.642.957-.861.396-.219.863-.328 1.401-.328 1.622 0 2.447.859 2.475 2.577v4.956h-1.265v-4.881c0-.529-.121-.923-.362-1.182-.242-.265-.647-.397-1.217-.397-.47 0-.859.141-1.169.424-.31.278-.49.654-.54 1.128v4.908h-1.272v-4.847c0-1.075-.526-1.613-1.579-1.613-.829 0-1.396.353-1.702 1.06v5.4h-1.264v-7.396z" fill="#000"/><path d="m304.79 487.04v1.073h-.232c-.985.019-1.769.31-2.352.875s-.921 1.361-1.012 2.386c.524-.602 1.24-.902 2.147-.902.866 0 1.556.305 2.071.916.52.61.779 1.399.779 2.365 0 1.025-.28 1.846-.84 2.461-.556.615-1.304.923-2.243.923-.952 0-1.725-.365-2.317-1.094-.592-.734-.889-1.677-.889-2.83v-.485c0-1.832.39-3.232 1.169-4.198.784-.97 1.949-1.467 3.493-1.49zm-1.661 4.484c-.433 0-.832.13-1.196.39-.365.26-.618.586-.759.978v.464c0 .821.184 1.482.554 1.983.369.501.829.752 1.38.752.57 0 1.017-.21 1.34-.629.328-.419.492-.969.492-1.648 0-.683-.166-1.235-.499-1.654-.328-.424-.765-.636-1.312-.636zm5.879-1.92.034.82c.542-.638 1.274-.957 2.194-.957 1.035 0 1.739.396 2.113 1.189.246-.355.565-.642.957-.861.396-.219.863-.328 1.401-.328 1.622 0 2.447.859 2.475 2.577v4.956h-1.265v-4.881c0-.529-.121-.923-.362-1.182-.242-.265-.647-.397-1.217-.397-.47 0-.859.141-1.169.424-.31.278-.49.654-.54 1.128v4.908h-1.272v-4.847c0-1.075-.526-1.613-1.579-1.613-.829 0-1.396.353-1.702 1.06v5.4h-1.264v-7.396z" fill="#000"/><path d="m221 0v150" stroke="#000" stroke-width="2"/><path d="m401 0v150" stroke="#000" stroke-width="2"/><path d="m221 300v150" stroke="#000" stroke-width="2"/><path d="m401 300v150" stroke="#000" stroke-width="2"/><path d="m118.283 216.127h-3.199v8.873h-1.306v-8.873h-3.192v-1.08h7.697zm5.066 8.873c-.073-.146-.133-.406-.178-.779-.588.61-1.29.916-2.106.916-.729 0-1.328-.205-1.797-.616-.465-.414-.698-.938-.698-1.572 0-.77.292-1.367.875-1.791.588-.428 1.413-.642 2.475-.642h1.23v-.581c0-.442-.132-.793-.396-1.053-.264-.264-.654-.397-1.169-.397-.451 0-.829.114-1.135.342-.305.228-.458.504-.458.827h-1.271c0-.369.13-.724.389-1.066.265-.346.62-.62 1.067-.82.451-.201.945-.301 1.483-.301.852 0 1.52.214 2.003.642.483.424.734 1.01.752 1.757v3.405c0 .679.087 1.219.26 1.62v.109zm-2.099-.964c.396 0 .772-.102 1.128-.307.355-.206.613-.472.772-.8v-1.518h-.991c-1.549 0-2.324.454-2.324 1.36 0 .397.132.707.396.93.265.223.604.335 1.019.335zm8.723-5.298c-.192-.032-.399-.048-.622-.048-.83 0-1.393.354-1.689 1.06v5.25h-1.265v-7.396h1.231l.02.854c.415-.661 1.003-.991 1.764-.991.246 0 .433.032.561.095zm.731 2.502c0-1.153.267-2.069.8-2.748.533-.683 1.239-1.025 2.119-1.025.902 0 1.606.319 2.112.957l.062-.82h1.155v7.218c0 .957-.285 1.712-.854 2.263-.565.551-1.327.827-2.284.827-.533 0-1.055-.114-1.565-.342s-.9-.54-1.169-.936l.656-.759c.543.67 1.206 1.005 1.99 1.005.615 0 1.093-.173 1.435-.52.346-.346.52-.834.52-1.463v-.635c-.506.583-1.197.875-2.072.875-.866 0-1.567-.349-2.105-1.046-.533-.697-.8-1.648-.8-2.851zm1.272.144c0 .834.17 1.49.512 1.969.342.473.821.71 1.436.71.797 0 1.383-.362 1.757-1.086v-3.377c-.388-.707-.969-1.06-1.743-1.06-.616 0-1.097.239-1.443.718-.346.478-.519 1.187-.519 2.126zm9.96 3.753c-1.003 0-1.819-.328-2.448-.985-.629-.66-.943-1.542-.943-2.645v-.233c0-.733.139-1.387.417-1.962.282-.578.674-1.029 1.176-1.353.506-.328 1.052-.492 1.64-.492.962 0 1.709.317 2.243.95.533.633.799 1.54.799 2.721v.526h-5.01c.018.729.23 1.319.635 1.771.41.446.93.669 1.559.669.447 0 .825-.091 1.135-.273s.581-.424.813-.725l.773.602c-.62.952-1.55 1.429-2.789 1.429zm-.158-6.631c-.51 0-.938.187-1.285.56-.346.37-.56.889-.642 1.559h3.705v-.096c-.037-.642-.21-1.139-.52-1.49-.31-.355-.729-.533-1.258-.533zm6.228-2.694v1.792h1.381v.977h-1.381v4.587c0 .296.061.519.184.67.123.146.333.219.629.219.146 0 .347-.028.602-.082v1.025c-.333.091-.656.137-.971.137-.565 0-.991-.171-1.278-.513s-.431-.827-.431-1.456v-4.587h-1.346v-.977h1.346v-1.792zm7.519 8.115h5.695v1.073h-7.246v-.984l5.455-7.889h-5.366v-1.08h6.938v.964zm6.713-2.694c0-.724.142-1.376.424-1.955.287-.578.684-1.025 1.19-1.34.51-.314 1.091-.471 1.743-.471 1.007 0 1.82.348 2.44 1.046.625.697.937 1.624.937 2.782v.089c0 .72-.139 1.367-.417 1.941-.274.57-.668 1.014-1.183 1.333-.51.319-1.098.479-1.764.479-1.002 0-1.816-.349-2.44-1.046-.62-.697-.93-1.62-.93-2.769zm1.272.151c0 .82.189 1.479.567 1.975.383.497.893.745 1.531.745.643 0 1.153-.25 1.532-.751.378-.506.567-1.213.567-2.12 0-.811-.194-1.467-.581-1.968-.383-.506-.893-.759-1.531-.759-.625 0-1.128.248-1.511.745s-.574 1.208-.574 2.133zm8.244-3.78.041.929c.565-.711 1.303-1.066 2.215-1.066 1.563 0 2.351.882 2.365 2.645v4.888h-1.265v-4.895c-.004-.533-.127-.927-.369-1.182-.237-.255-.608-.383-1.114-.383-.41 0-.77.109-1.08.328s-.552.506-.725.861v5.271h-1.264v-7.396zm9.598 7.533c-1.003 0-1.819-.328-2.448-.985-.629-.66-.943-1.542-.943-2.645v-.233c0-.733.139-1.387.417-1.962.282-.578.674-1.029 1.176-1.353.506-.328 1.052-.492 1.64-.492.962 0 1.709.317 2.243.95.533.633.799 1.54.799 2.721v.526h-5.01c.018.729.23 1.319.635 1.771.41.446.93.669 1.559.669.447 0 .825-.091 1.135-.273s.581-.424.813-.725l.773.602c-.62.952-1.55 1.429-2.789 1.429zm-.158-6.631c-.51 0-.938.187-1.285.56-.346.37-.56.889-.642 1.559h3.705v-.096c-.037-.642-.21-1.139-.52-1.49-.31-.355-.729-.533-1.258-.533zm-48.822 13.621h-3.199v8.873h-1.306v-8.873h-3.192v-1.08h7.697zm3.664 9.01c-1.002 0-1.818-.328-2.447-.985-.629-.66-.943-1.542-.943-2.645v-.233c0-.733.139-1.387.417-1.962.282-.578.674-1.029 1.175-1.353.506-.328 1.053-.492 1.641-.492.961 0 1.709.317 2.242.95s.8 1.54.8 2.721v.526h-5.011c.018.729.23 1.319.636 1.771.41.446.93.669 1.558.669.447 0 .825-.091 1.135-.273s.581-.424.814-.725l.772.602c-.62.952-1.549 1.429-2.789 1.429zm-.157-6.631c-.511 0-.939.187-1.285.56-.347.37-.561.889-.643 1.559h3.705v-.096c-.036-.642-.209-1.139-.519-1.49-.31-.355-.729-.533-1.258-.533zm9.078 6.494c-.073-.146-.132-.406-.178-.779-.588.61-1.289.916-2.105.916-.729 0-1.329-.205-1.798-.616-.465-.414-.697-.938-.697-1.572 0-.77.291-1.367.875-1.791.588-.428 1.412-.642 2.474-.642h1.231v-.581c0-.442-.132-.793-.397-1.053-.264-.264-.654-.397-1.169-.397-.451 0-.829.114-1.134.342-.306.228-.458.504-.458.827h-1.272c0-.369.13-.724.39-1.066.264-.346.62-.62 1.066-.82.451-.201.946-.301 1.484-.301.852 0 1.519.214 2.002.642.484.424.734 1.01.752 1.757v3.405c0 .679.087 1.219.26 1.62v.109zm-2.099-.964c.397 0 .773-.102 1.128-.307.356-.206.613-.472.773-.8v-1.518h-.991c-1.55 0-2.325.454-2.325 1.36 0 .397.133.707.397.93s.604.335 1.018.335zm6.337-6.432.034.82c.543-.638 1.274-.957 2.195-.957 1.034 0 1.738.396 2.112 1.189.246-.355.565-.642.957-.861.397-.219.864-.328 1.402-.328 1.622 0 2.447.859 2.474 2.577v4.956h-1.265v-4.881c0-.529-.12-.923-.362-1.182-.241-.265-.647-.397-1.217-.397-.469 0-.859.141-1.169.424-.309.278-.489.654-.54 1.128v4.908h-1.271v-4.847c0-1.075-.526-1.613-1.579-1.613-.83 0-1.397.353-1.702 1.06v5.4h-1.265v-7.396zm18.587 7.396h-1.271v-8.429l-2.55.937v-1.149l3.623-1.36h.198z" fill="#000"/><path d="m450.283 216.127h-3.199v8.873h-1.306v-8.873h-3.192v-1.08h7.697zm5.066 8.873c-.073-.146-.133-.406-.178-.779-.588.61-1.29.916-2.106.916-.729 0-1.328-.205-1.797-.616-.465-.414-.698-.938-.698-1.572 0-.77.292-1.367.875-1.791.588-.428 1.413-.642 2.475-.642h1.23v-.581c0-.442-.132-.793-.396-1.053-.264-.264-.654-.397-1.169-.397-.451 0-.829.114-1.135.342-.305.228-.458.504-.458.827h-1.271c0-.369.13-.724.389-1.066.265-.346.62-.62 1.067-.82.451-.201.945-.301 1.483-.301.852 0 1.52.214 2.003.642.483.424.734 1.01.752 1.757v3.405c0 .679.087 1.219.26 1.62v.109zm-2.099-.964c.396 0 .772-.102 1.128-.307.355-.206.613-.472.772-.8v-1.518h-.991c-1.549 0-2.324.454-2.324 1.36 0 .397.132.707.396.93.265.223.604.335 1.019.335zm8.723-5.298c-.192-.032-.399-.048-.622-.048-.83 0-1.393.354-1.689 1.06v5.25h-1.265v-7.396h1.231l.02.854c.415-.661 1.003-.991 1.764-.991.246 0 .433.032.561.095zm.731 2.502c0-1.153.267-2.069.8-2.748.533-.683 1.239-1.025 2.119-1.025.902 0 1.606.319 2.112.957l.062-.82h1.155v7.218c0 .957-.285 1.712-.854 2.263-.565.551-1.327.827-2.284.827-.533 0-1.055-.114-1.565-.342s-.9-.54-1.169-.936l.656-.759c.543.67 1.206 1.005 1.99 1.005.615 0 1.093-.173 1.435-.52.346-.346.52-.834.52-1.463v-.635c-.506.583-1.197.875-2.072.875-.866 0-1.567-.349-2.105-1.046-.533-.697-.8-1.648-.8-2.851zm1.272.144c0 .834.17 1.49.512 1.969.342.473.821.71 1.436.71.797 0 1.383-.362 1.757-1.086v-3.377c-.388-.707-.969-1.06-1.743-1.06-.616 0-1.097.239-1.443.718-.346.478-.519 1.187-.519 2.126zm9.96 3.753c-1.003 0-1.819-.328-2.448-.985-.629-.66-.943-1.542-.943-2.645v-.233c0-.733.139-1.387.417-1.962.282-.578.674-1.029 1.176-1.353.506-.328 1.052-.492 1.64-.492.962 0 1.709.317 2.243.95.533.633.799 1.54.799 2.721v.526h-5.01c.018.729.23 1.319.635 1.771.41.446.93.669 1.559.669.447 0 .825-.091 1.135-.273s.581-.424.813-.725l.773.602c-.62.952-1.55 1.429-2.789 1.429zm-.158-6.631c-.51 0-.938.187-1.285.56-.346.37-.56.889-.642 1.559h3.705v-.096c-.037-.642-.21-1.139-.52-1.49-.31-.355-.729-.533-1.258-.533zm6.228-2.694v1.792h1.381v.977h-1.381v4.587c0 .296.061.519.184.67.123.146.333.219.629.219.146 0 .347-.028.602-.082v1.025c-.333.091-.656.137-.971.137-.565 0-.991-.171-1.278-.513s-.431-.827-.431-1.456v-4.587h-1.346v-.977h1.346v-1.792zm7.519 8.115h5.695v1.073h-7.246v-.984l5.455-7.889h-5.366v-1.08h6.938v.964zm6.713-2.694c0-.724.142-1.376.424-1.955.287-.578.684-1.025 1.19-1.34.51-.314 1.091-.471 1.743-.471 1.007 0 1.82.348 2.44 1.046.625.697.937 1.624.937 2.782v.089c0 .72-.139 1.367-.417 1.941-.274.57-.668 1.014-1.183 1.333-.51.319-1.098.479-1.764.479-1.002 0-1.816-.349-2.44-1.046-.62-.697-.93-1.62-.93-2.769zm1.272.151c0 .82.189 1.479.567 1.975.383.497.893.745 1.531.745.643 0 1.153-.25 1.532-.751.378-.506.567-1.213.567-2.12 0-.811-.194-1.467-.581-1.968-.383-.506-.893-.759-1.531-.759-.625 0-1.128.248-1.511.745s-.574 1.208-.574 2.133zm8.244-3.78.041.929c.565-.711 1.303-1.066 2.215-1.066 1.563 0 2.351.882 2.365 2.645v4.888h-1.265v-4.895c-.004-.533-.127-.927-.369-1.182-.237-.255-.608-.383-1.114-.383-.41 0-.77.109-1.08.328s-.552.506-.725.861v5.271h-1.264v-7.396zm9.598 7.533c-1.003 0-1.819-.328-2.448-.985-.629-.66-.943-1.542-.943-2.645v-.233c0-.733.139-1.387.417-1.962.282-.578.674-1.029 1.176-1.353.506-.328 1.052-.492 1.64-.492.962 0 1.709.317 2.243.95.533.633.799 1.54.799 2.721v.526h-5.01c.018.729.23 1.319.635 1.771.41.446.93.669 1.559.669.447 0 .825-.091 1.135-.273s.581-.424.813-.725l.773.602c-.62.952-1.55 1.429-2.789 1.429zm-.158-6.631c-.51 0-.938.187-1.285.56-.346.37-.56.889-.642 1.559h3.705v-.096c-.037-.642-.21-1.139-.52-1.49-.31-.355-.729-.533-1.258-.533zm-48.822 13.621h-3.199v8.873h-1.306v-8.873h-3.192v-1.08h7.697zm3.664 9.01c-1.002 0-1.818-.328-2.447-.985-.629-.66-.943-1.542-.943-2.645v-.233c0-.733.139-1.387.417-1.962.282-.578.674-1.029 1.175-1.353.506-.328 1.053-.492 1.641-.492.961 0 1.709.317 2.242.95s.8 1.54.8 2.721v.526h-5.011c.018.729.23 1.319.636 1.771.41.446.93.669 1.558.669.447 0 .825-.091 1.135-.273s.581-.424.814-.725l.772.602c-.62.952-1.549 1.429-2.789 1.429zm-.157-6.631c-.511 0-.939.187-1.285.56-.347.37-.561.889-.643 1.559h3.705v-.096c-.036-.642-.209-1.139-.519-1.49-.31-.355-.729-.533-1.258-.533zm9.078 6.494c-.073-.146-.132-.406-.178-.779-.588.61-1.289.916-2.105.916-.729 0-1.329-.205-1.798-.616-.465-.414-.697-.938-.697-1.572 0-.77.291-1.367.875-1.791.588-.428 1.412-.642 2.474-.642h1.231v-.581c0-.442-.132-.793-.397-1.053-.264-.264-.654-.397-1.169-.397-.451 0-.829.114-1.134.342-.306.228-.458.504-.458.827h-1.272c0-.369.13-.724.39-1.066.264-.346.62-.62 1.066-.82.451-.201.946-.301 1.484-.301.852 0 1.519.214 2.002.642.484.424.734 1.01.752 1.757v3.405c0 .679.087 1.219.26 1.62v.109zm-2.099-.964c.397 0 .773-.102 1.128-.307.356-.206.613-.472.773-.8v-1.518h-.991c-1.55 0-2.325.454-2.325 1.36 0 .397.133.707.397.93s.604.335 1.018.335zm6.337-6.432.034.82c.543-.638 1.274-.957 2.195-.957 1.034 0 1.738.396 2.112 1.189.246-.355.565-.642.957-.861.397-.219.864-.328 1.402-.328 1.622 0 2.447.859 2.474 2.577v4.956h-1.265v-4.881c0-.529-.12-.923-.362-1.182-.241-.265-.647-.397-1.217-.397-.469 0-.859.141-1.169.424-.309.278-.489.654-.54 1.128v4.908h-1.271v-4.847c0-1.075-.526-1.613-1.579-1.613-.83 0-1.397.353-1.702 1.06v5.4h-1.265v-7.396zm20.952 7.396h-6.521v-.909l3.445-3.828c.511-.579.862-1.048 1.053-1.409.196-.364.294-.74.294-1.127 0-.52-.157-.946-.472-1.279-.314-.332-.733-.499-1.258-.499-.628 0-1.118.18-1.469.54-.347.356-.52.852-.52 1.49h-1.264c0-.916.294-1.656.881-2.221.593-.565 1.384-.848 2.372-.848.926 0 1.657.244 2.195.732.538.483.806 1.128.806 1.934 0 .98-.624 2.147-1.873 3.5l-2.666 2.892h4.997z" fill="#000"/><path d="m104.863 65.1035v3.8965h-1.312v-9.9531h3.671c1.089 0 1.941.278 2.556.834.62.556.93 1.292.93 2.208 0 .9661-.303 1.7112-.909 2.2353-.602.5196-1.465.7793-2.591.7793zm0-1.0732h2.359c.702 0 1.239-.1641 1.613-.4922.374-.3327.561-.8112.561-1.4356 0-.5924-.187-1.0664-.561-1.4218-.374-.3555-.886-.5401-1.538-.5537h-2.434zm8.696 4.9697h-1.265v-10.5h1.265zm6.596 0c-.073-.1458-.132-.4056-.177-.7793-.588.6107-1.29.916-2.106.916-.729 0-1.328-.2051-1.798-.6152-.465-.4147-.697-.9388-.697-1.5723 0-.7702.292-1.3672.875-1.791.588-.4284 1.413-.6426 2.475-.6426h1.23v-.581c0-.4421-.132-.793-.396-1.0528-.265-.2643-.654-.3964-1.169-.3964-.452 0-.83.1139-1.135.3418-.306.2278-.458.5035-.458.8271h-1.272c0-.3691.13-.7246.39-1.0664.264-.3464.62-.6198 1.066-.8203.452-.2005.946-.3008 1.484-.3008.852 0 1.52.2142 2.003.6426.483.4238.733 1.0094.752 1.7568v3.4043c0 .6791.086 1.2191.259 1.6201v.1094zm-2.098-.9639c.396 0 .772-.1025 1.128-.3076.355-.2051.613-.4717.772-.7998v-1.5176h-.991c-1.55 0-2.324.4535-2.324 1.3604 0 .3965.132.7064.396.9297s.604.3349 1.019.3349zm7.458-.8886 1.722-5.544h1.354l-2.974 8.5381c-.46 1.2305-1.192 1.8457-2.194 1.8457l-.239-.0205-.472-.0889v-1.0254l.342.0274c.428 0 .761-.0866.998-.2598.241-.1732.44-.4899.594-.9502l.281-.7519-2.639-7.3145h1.381zm8.866.7793h5.694v1.0732h-7.246v-.9844l5.455-7.8886h-5.366v-1.0801h6.938v.9638zm6.713-2.6934c0-.7246.141-1.3763.424-1.9551.287-.5788.683-1.0254 1.189-1.3398.51-.3145 1.092-.4717 1.743-.4717 1.007 0 1.821.3486 2.441 1.0459.624.6973.936 1.6247.936 2.7822v.0889c0 .72-.139 1.3672-.417 1.9414-.273.5697-.667 1.014-1.182 1.333-.511.319-1.099.4785-1.764.4785-1.003 0-1.816-.3486-2.441-1.0459-.619-.6972-.929-1.6201-.929-2.7685zm1.271.1504c0 .8203.189 1.4788.568 1.9756.382.4967.893.7451 1.531.7451.642 0 1.153-.2507 1.531-.752.378-.5058.568-1.2122.568-2.1191 0-.8112-.194-1.4674-.582-1.9687-.382-.5059-.893-.7588-1.531-.7588-.624 0-1.128.2483-1.511.7451-.382.4967-.574 1.2077-.574 2.1328zm8.244-3.7803.041.9297c.565-.7109 1.304-1.0664 2.215-1.0664 1.563 0 2.352.8818 2.365 2.6455v4.8877h-1.264v-4.8945c-.005-.5332-.128-.9274-.369-1.1826-.237-.2553-.609-.3829-1.115-.3829-.41 0-.77.1094-1.08.3282-.31.2187-.551.5058-.724.8613v5.2705h-1.265v-7.3965zm9.598 7.5332c-1.003 0-1.818-.3281-2.447-.9844-.629-.6608-.944-1.5426-.944-2.6455v-.2324c0-.7337.139-1.3877.417-1.9619.283-.5788.675-1.0299 1.176-1.3535.506-.3281 1.053-.4922 1.641-.4922.961 0 1.709.3167 2.242.9502s.8 1.5404.8 2.7207v.5264h-5.011c.018.7291.23 1.3193.636 1.7705.41.4466.929.6699 1.558.6699.447 0 .825-.0911 1.135-.2734s.581-.4239.814-.7247l.772.6016c-.62.9525-1.549 1.4287-2.789 1.4287zm-.157-6.6308c-.511 0-.939.1868-1.285.5605-.347.3692-.561.8887-.643 1.5586h3.705v-.0957c-.036-.6426-.209-1.1393-.519-1.4902-.31-.3555-.73-.5332-1.258-.5332zm-42.178 13.6211h-3.199v8.873h-1.306v-8.873h-3.192v-1.0801h7.697zm3.664 9.0097c-1.002 0-1.818-.3281-2.447-.9843-.629-.6609-.943-1.5427-.943-2.6456v-.2324c0-.7337.139-1.3877.417-1.9619.282-.5788.674-1.0299 1.175-1.3535.506-.3281 1.053-.4922 1.641-.4922.961 0 1.709.3167 2.242.9502s.8 1.5404.8 2.7207v.5264h-5.011c.018.7291.23 1.3193.636 1.7705.41.4466.93.6699 1.558.6699.447 0 .825-.0911 1.135-.2734s.581-.4239.814-.7246l.772.6015c-.62.9525-1.549 1.4287-2.789 1.4287zm-.157-6.6308c-.511 0-.939.1868-1.285.5605-.347.3692-.561.8887-.643 1.5586h3.705v-.0957c-.036-.6426-.209-1.1393-.519-1.4902-.31-.3555-.729-.5332-1.258-.5332zm9.078 6.4941c-.073-.1458-.132-.4056-.178-.7793-.588.6107-1.289.916-2.105.916-.729 0-1.329-.2051-1.798-.6152-.465-.4147-.697-.9388-.697-1.5723 0-.7702.291-1.3672.875-1.791.588-.4284 1.412-.6426 2.474-.6426h1.231v-.581c0-.4421-.132-.793-.397-1.0528-.264-.2643-.654-.3964-1.169-.3964-.451 0-.829.1139-1.134.3418-.306.2278-.458.5035-.458.8271h-1.272c0-.3691.13-.7246.39-1.0664.264-.3464.62-.6198 1.066-.8203.451-.2005.946-.3008 1.484-.3008.852 0 1.519.2142 2.002.6426.484.4238.734 1.0094.752 1.7568v3.4043c0 .6791.087 1.2191.26 1.6201v.1094zm-2.099-.9639c.397 0 .773-.1025 1.128-.3076.356-.2051.613-.4717.773-.7998v-1.5176h-.991c-1.55 0-2.325.4535-2.325 1.3604 0 .3965.133.7064.397.9297s.604.3349 1.018.3349zm6.337-6.4326.034.8203c.543-.638 1.274-.957 2.195-.957 1.034 0 1.738.3965 2.112 1.1895.246-.3555.565-.6426.957-.8614.397-.2187.864-.3281 1.402-.3281 1.622 0 2.447.8591 2.474 2.5772v4.956h-1.265v-4.8809c0-.5286-.12-.9228-.362-1.1826-.241-.2643-.647-.3965-1.217-.3965-.469 0-.859.1413-1.169.4239-.309.278-.489.6539-.54 1.1279v4.9082h-1.271v-4.8467c0-1.0755-.526-1.6133-1.579-1.6133-.83 0-1.397.3532-1.702 1.0596v5.4004h-1.265v-7.3965zm18.587 7.3965h-1.271v-8.4287l-2.55.9365v-1.1484l3.623-1.3604h.198z" fill="#000"/><path d="m456.863 65.1035v3.8965h-1.312v-9.9531h3.671c1.089 0 1.941.278 2.556.834.62.556.93 1.292.93 2.208 0 .9661-.303 1.7112-.909 2.2353-.602.5196-1.465.7793-2.591.7793zm0-1.0732h2.359c.702 0 1.239-.1641 1.613-.4922.374-.3327.561-.8112.561-1.4356 0-.5924-.187-1.0664-.561-1.4218-.374-.3555-.886-.5401-1.538-.5537h-2.434zm8.696 4.9697h-1.265v-10.5h1.265zm6.596 0c-.073-.1458-.132-.4056-.177-.7793-.588.6107-1.29.916-2.106.916-.729 0-1.328-.2051-1.798-.6152-.465-.4147-.697-.9388-.697-1.5723 0-.7702.292-1.3672.875-1.791.588-.4284 1.413-.6426 2.475-.6426h1.23v-.581c0-.4421-.132-.793-.396-1.0528-.265-.2643-.654-.3964-1.169-.3964-.452 0-.83.1139-1.135.3418-.306.2278-.458.5035-.458.8271h-1.272c0-.3691.13-.7246.39-1.0664.264-.3464.62-.6198 1.066-.8203.452-.2005.946-.3008 1.484-.3008.852 0 1.52.2142 2.003.6426.483.4238.733 1.0094.752 1.7568v3.4043c0 .6791.086 1.2191.259 1.6201v.1094zm-2.098-.9639c.396 0 .772-.1025 1.128-.3076.355-.2051.613-.4717.772-.7998v-1.5176h-.991c-1.55 0-2.324.4535-2.324 1.3604 0 .3965.132.7064.396.9297s.604.3349 1.019.3349zm7.458-.8886 1.722-5.544h1.354l-2.974 8.5381c-.46 1.2305-1.192 1.8457-2.194 1.8457l-.239-.0205-.472-.0889v-1.0254l.342.0274c.428 0 .761-.0866.998-.2598.241-.1732.44-.4899.594-.9502l.281-.7519-2.639-7.3145h1.381zm8.866.7793h5.694v1.0732h-7.246v-.9844l5.455-7.8886h-5.366v-1.0801h6.938v.9638zm6.713-2.6934c0-.7246.141-1.3763.424-1.9551.287-.5788.683-1.0254 1.189-1.3398.51-.3145 1.092-.4717 1.743-.4717 1.007 0 1.821.3486 2.441 1.0459.624.6973.936 1.6247.936 2.7822v.0889c0 .72-.139 1.3672-.417 1.9414-.273.5697-.667 1.014-1.182 1.333-.511.319-1.099.4785-1.764.4785-1.003 0-1.816-.3486-2.441-1.0459-.619-.6972-.929-1.6201-.929-2.7685zm1.271.1504c0 .8203.189 1.4788.568 1.9756.382.4967.893.7451 1.531.7451.642 0 1.153-.2507 1.531-.752.378-.5058.568-1.2122.568-2.1191 0-.8112-.194-1.4674-.582-1.9687-.382-.5059-.893-.7588-1.531-.7588-.624 0-1.128.2483-1.511.7451-.382.4967-.574 1.2077-.574 2.1328zm8.244-3.7803.041.9297c.565-.7109 1.304-1.0664 2.215-1.0664 1.563 0 2.352.8818 2.365 2.6455v4.8877h-1.264v-4.8945c-.005-.5332-.128-.9274-.369-1.1826-.237-.2553-.609-.3829-1.115-.3829-.41 0-.77.1094-1.08.3282-.31.2187-.551.5058-.724.8613v5.2705h-1.265v-7.3965zm9.598 7.5332c-1.003 0-1.818-.3281-2.447-.9844-.629-.6608-.944-1.5426-.944-2.6455v-.2324c0-.7337.139-1.3877.417-1.9619.283-.5788.675-1.0299 1.176-1.3535.506-.3281 1.053-.4922 1.641-.4922.961 0 1.709.3167 2.242.9502s.8 1.5404.8 2.7207v.5264h-5.011c.018.7291.23 1.3193.636 1.7705.41.4466.929.6699 1.558.6699.447 0 .825-.0911 1.135-.2734s.581-.4239.814-.7247l.772.6016c-.62.9525-1.549 1.4287-2.789 1.4287zm-.157-6.6308c-.511 0-.939.1868-1.285.5605-.347.3692-.561.8887-.643 1.5586h3.705v-.0957c-.036-.6426-.209-1.1393-.519-1.4902-.31-.3555-.73-.5332-1.258-.5332zm-42.178 13.6211h-3.199v8.873h-1.306v-8.873h-3.192v-1.0801h7.697zm3.664 9.0097c-1.002 0-1.818-.3281-2.447-.9843-.629-.6609-.943-1.5427-.943-2.6456v-.2324c0-.7337.139-1.3877.417-1.9619.282-.5788.674-1.0299 1.175-1.3535.506-.3281 1.053-.4922 1.641-.4922.961 0 1.709.3167 2.242.9502s.8 1.5404.8 2.7207v.5264h-5.011c.018.7291.23 1.3193.636 1.7705.41.4466.93.6699 1.558.6699.447 0 .825-.0911 1.135-.2734s.581-.4239.814-.7246l.772.6015c-.62.9525-1.549 1.4287-2.789 1.4287zm-.157-6.6308c-.511 0-.939.1868-1.285.5605-.347.3692-.561.8887-.643 1.5586h3.705v-.0957c-.036-.6426-.209-1.1393-.519-1.4902-.31-.3555-.729-.5332-1.258-.5332zm9.078 6.4941c-.073-.1458-.132-.4056-.178-.7793-.588.6107-1.289.916-2.105.916-.729 0-1.329-.2051-1.798-.6152-.465-.4147-.697-.9388-.697-1.5723 0-.7702.291-1.3672.875-1.791.588-.4284 1.412-.6426 2.474-.6426h1.231v-.581c0-.4421-.132-.793-.397-1.0528-.264-.2643-.654-.3964-1.169-.3964-.451 0-.829.1139-1.134.3418-.306.2278-.458.5035-.458.8271h-1.272c0-.3691.13-.7246.39-1.0664.264-.3464.62-.6198 1.066-.8203.451-.2005.946-.3008 1.484-.3008.852 0 1.519.2142 2.002.6426.484.4238.734 1.0094.752 1.7568v3.4043c0 .6791.087 1.2191.26 1.6201v.1094zm-2.099-.9639c.397 0 .773-.1025 1.128-.3076.356-.2051.613-.4717.773-.7998v-1.5176h-.991c-1.55 0-2.325.4535-2.325 1.3604 0 .3965.133.7064.397.9297s.604.3349 1.018.3349zm6.337-6.4326.034.8203c.543-.638 1.274-.957 2.195-.957 1.034 0 1.738.3965 2.112 1.1895.246-.3555.565-.6426.957-.8614.397-.2187.864-.3281 1.402-.3281 1.622 0 2.447.8591 2.474 2.5772v4.956h-1.265v-4.8809c0-.5286-.12-.9228-.362-1.1826-.241-.2643-.647-.3965-1.217-.3965-.469 0-.859.1413-1.169.4239-.309.278-.489.6539-.54 1.1279v4.9082h-1.271v-4.8467c0-1.0755-.526-1.6133-1.579-1.6133-.83 0-1.397.3532-1.702 1.0596v5.4004h-1.265v-7.3965zm20.952 7.3965h-6.521v-.9092l3.445-3.8281c.511-.5788.862-1.0482 1.053-1.4082.196-.3646.294-.7406.294-1.1279 0-.5196-.157-.9457-.472-1.2784-.314-.3326-.733-.499-1.258-.499-.628 0-1.118.18-1.469.5401-.347.3554-.52.8522-.52 1.4902h-1.264c0-.916.294-1.6566.881-2.2217.593-.5651 1.384-.8476 2.372-.8476.926 0 1.657.2438 2.195.7314.538.4831.806 1.1279.806 1.9346 0 .9798-.624 2.1465-1.873 3.5l-2.666 2.8916h4.997z" fill="#000"/></svg>