<svg width="527" height="206" viewBox="0 0 527 206" fill="none" xmlns="http://www.w3.org/2000/svg">
<rect x="52" y="1" width="148" height="148" stroke="black" stroke-width="2"/>
<rect x="378" y="1" width="148" height="148" stroke="black" stroke-width="2"/>
<line x1="33" y1="0.5" x2="13" y2="0.5" stroke="#909090"/>
<line x1="200.5" y1="190" x2="200.5" y2="170" stroke="#909090"/>
<line x1="376.5" y1="190" x2="376.5" y2="170" stroke="#909090"/>
<line x1="526.5" y1="190" x2="526.5" y2="170" stroke="#909090"/>
<line x1="33" y1="150.5" x2="13" y2="150.5" stroke="#909090"/>
<line x1="50.5" y1="190" x2="50.5" y2="170" stroke="#909090"/>
<line x1="23.5" x2="23.5" y2="150" stroke="#909090"/>
<line x1="527" y1="180.5" x2="51" y2="180.5" stroke="#909090"/>
<path d="M8.00977 83.5918L3.04687 83.0859L3.04687 77.9863L4.21582 77.9863L4.21582 82.0127L6.92969 82.3135C6.64258 81.8258 6.49902 81.2721 6.49902 80.6523C6.49902 79.7454 6.7998 79.0254 7.40137 78.4922C7.99837 77.959 8.80729 77.6924 9.82812 77.6924C10.8535 77.6924 11.6624 77.9704 12.2549 78.5264C12.8428 79.0778 13.1367 79.8503 13.1367 80.8437C13.1367 81.7233 12.8929 82.4411 12.4053 82.9971C11.9176 83.5531 11.2432 83.8698 10.3818 83.9473L10.3818 82.751C10.9515 82.6735 11.3822 82.4707 11.6738 82.1426C11.9609 81.8145 12.1045 81.3815 12.1045 80.8437C12.1045 80.2559 11.904 79.7956 11.5029 79.4629C11.1019 79.1257 10.5482 78.957 9.8418 78.957C9.17643 78.957 8.64323 79.1393 8.24219 79.5039C7.83659 79.8639 7.63379 80.3447 7.63379 80.9463C7.63379 81.4977 7.75456 81.9307 7.99609 82.2451L8.26953 82.5801L8.00977 83.5918ZM5.60352 74.9922L6.42383 74.958C5.78581 74.4157 5.4668 73.6842 5.4668 72.7637C5.4668 71.7292 5.86328 71.0251 6.65625 70.6514C6.30078 70.4053 6.01367 70.0863 5.79492 69.6943C5.57617 69.2979 5.4668 68.8307 5.4668 68.293C5.4668 66.6706 6.32585 65.8457 8.04394 65.8184L13 65.8184L13 67.083L8.11914 67.083C7.59049 67.083 7.19629 67.2038 6.93652 67.4453C6.6722 67.6868 6.54004 68.0924 6.54004 68.6621C6.54004 69.1315 6.68131 69.5212 6.96387 69.8311C7.24186 70.141 7.61784 70.321 8.0918 70.3711L13 70.3711L13 71.6426L8.15332 71.6426C7.0778 71.6426 6.54004 72.1689 6.54004 73.2217C6.54004 74.0511 6.89323 74.6185 7.59961 74.9238L13 74.9238L13 76.1885L5.60352 76.1885L5.60352 74.9922Z" fill="black"/>
<path d="M117.408 198.01L117.914 193.047L123.014 193.047L123.014 194.216L118.987 194.216L118.687 196.93C119.174 196.643 119.728 196.499 120.348 196.499C121.255 196.499 121.975 196.8 122.508 197.401C123.041 197.998 123.308 198.807 123.308 199.828C123.308 200.854 123.03 201.662 122.474 202.255C121.922 202.843 121.15 203.137 120.156 203.137C119.277 203.137 118.559 202.893 118.003 202.405C117.447 201.918 117.13 201.243 117.053 200.382L118.249 200.382C118.326 200.951 118.529 201.382 118.857 201.674C119.186 201.961 119.618 202.104 120.156 202.104C120.744 202.104 121.204 201.904 121.537 201.503C121.874 201.102 122.043 200.548 122.043 199.842C122.043 199.176 121.861 198.643 121.496 198.242C121.136 197.837 120.655 197.634 120.054 197.634C119.502 197.634 119.069 197.755 118.755 197.996L118.42 198.27L117.408 198.01ZM126.008 195.604L126.042 196.424C126.584 195.786 127.316 195.467 128.236 195.467C129.271 195.467 129.975 195.863 130.349 196.656C130.595 196.301 130.914 196.014 131.306 195.795C131.702 195.576 132.169 195.467 132.707 195.467C134.329 195.467 135.154 196.326 135.182 198.044L135.182 203L133.917 203L133.917 198.119C133.917 197.59 133.796 197.196 133.555 196.937C133.313 196.672 132.908 196.54 132.338 196.54C131.868 196.54 131.479 196.681 131.169 196.964C130.859 197.242 130.679 197.618 130.629 198.092L130.629 203L129.357 203L129.357 198.153C129.357 197.078 128.831 196.54 127.778 196.54C126.949 196.54 126.382 196.893 126.076 197.6L126.076 203L124.812 203L124.812 195.604L126.008 195.604Z" fill="black"/>
<path d="M442.408 198.01L442.914 193.047L448.014 193.047L448.014 194.216L443.987 194.216L443.687 196.93C444.174 196.643 444.728 196.499 445.348 196.499C446.255 196.499 446.975 196.8 447.508 197.401C448.041 197.998 448.308 198.807 448.308 199.828C448.308 200.854 448.03 201.662 447.474 202.255C446.922 202.843 446.15 203.137 445.156 203.137C444.277 203.137 443.559 202.893 443.003 202.405C442.447 201.918 442.13 201.243 442.053 200.382L443.249 200.382C443.326 200.951 443.529 201.382 443.857 201.674C444.186 201.961 444.618 202.104 445.156 202.104C445.744 202.104 446.204 201.904 446.537 201.503C446.874 201.102 447.043 200.548 447.043 199.842C447.043 199.176 446.861 198.643 446.496 198.242C446.136 197.837 445.655 197.634 445.054 197.634C444.502 197.634 444.069 197.755 443.755 197.996L443.42 198.27L442.408 198.01ZM451.008 195.604L451.042 196.424C451.584 195.786 452.316 195.467 453.236 195.467C454.271 195.467 454.975 195.863 455.349 196.656C455.595 196.301 455.914 196.014 456.306 195.795C456.702 195.576 457.169 195.467 457.707 195.467C459.329 195.467 460.154 196.326 460.182 198.044L460.182 203L458.917 203L458.917 198.119C458.917 197.59 458.796 197.196 458.555 196.937C458.313 196.672 457.908 196.54 457.338 196.54C456.868 196.54 456.479 196.681 456.169 196.964C455.859 197.242 455.679 197.618 455.629 198.092L455.629 203L454.357 203L454.357 198.153C454.357 197.078 453.831 196.54 452.778 196.54C451.949 196.54 451.382 196.893 451.076 197.6L451.076 203L449.812 203L449.812 195.604L451.008 195.604Z" fill="black"/>
<path d="M283.79 193.04L283.79 194.113L283.558 194.113C282.573 194.132 281.789 194.423 281.206 194.988C280.623 195.553 280.285 196.349 280.194 197.374C280.718 196.772 281.434 196.472 282.341 196.472C283.207 196.472 283.897 196.777 284.412 197.388C284.932 197.998 285.191 198.787 285.191 199.753C285.191 200.778 284.911 201.599 284.351 202.214C283.795 202.829 283.047 203.137 282.108 203.137C281.156 203.137 280.383 202.772 279.791 202.043C279.199 201.309 278.902 200.366 278.902 199.213L278.902 198.728C278.902 196.896 279.292 195.496 280.071 194.53C280.855 193.56 282.02 193.063 283.564 193.04L283.79 193.04ZM282.129 197.524C281.696 197.524 281.297 197.654 280.933 197.914C280.568 198.174 280.315 198.5 280.174 198.892L280.174 199.356C280.174 200.177 280.358 200.838 280.728 201.339C281.097 201.84 281.557 202.091 282.108 202.091C282.678 202.091 283.125 201.881 283.448 201.462C283.776 201.043 283.94 200.493 283.94 199.814C283.94 199.131 283.774 198.579 283.441 198.16C283.113 197.736 282.676 197.524 282.129 197.524ZM288.008 195.604L288.042 196.424C288.584 195.786 289.316 195.467 290.236 195.467C291.271 195.467 291.975 195.863 292.349 196.656C292.595 196.301 292.914 196.014 293.306 195.795C293.702 195.576 294.169 195.467 294.707 195.467C296.329 195.467 297.154 196.326 297.182 198.044L297.182 203L295.917 203L295.917 198.119C295.917 197.59 295.796 197.196 295.555 196.937C295.313 196.672 294.908 196.54 294.338 196.54C293.868 196.54 293.479 196.681 293.169 196.964C292.859 197.242 292.679 197.618 292.629 198.092L292.629 203L291.357 203L291.357 198.153C291.357 197.078 290.831 196.54 289.778 196.54C288.949 196.54 288.382 196.893 288.076 197.6L288.076 203L286.812 203L286.812 195.604L288.008 195.604Z" fill="black"/>
</svg>
