<svg width="712" height="146" viewBox="0 0 712 146" fill="none" xmlns="http://www.w3.org/2000/svg">
<path d="M62.08 14.76C60.224 14.632 57.76 14.44 54.688 14.184C51.616 13.928 48.96 13.8 46.72 13.8C44.48 13.8 43.04 14.12 42.4 14.76C41.76 15.4 41.44 16.2 41.44 17.16V21.96H57.28V34.92H41.44V69H24.64V34.92H17.92V21.96H24.64V15.24C24.64 10.888 25.952 7.39997 28.576 4.77597C31.2 2.15197 34.688 0.839966 39.04 0.839966C42.944 0.839966 47.072 0.967966 51.424 1.22397C55.776 1.47997 59.328 1.67197 62.08 1.79996V14.76Z" fill="black"/>
<path d="M91.8138 69C87.5258 69.64 83.4298 69.96 79.5258 69.96C75.6858 69.96 72.4538 68.648 69.8298 66.024C67.2058 63.4 65.8938 59.912 65.8938 55.56V1.79996H82.6938V53.16C82.6938 54.12 83.0138 54.92 83.6538 55.56C84.2938 56.2 85.0938 56.52 86.0538 56.52H91.8138V69Z" fill="black"/>
<path d="M118.679 56.52C122.071 56.52 125.911 55.88 130.199 54.6V48.84H116.279C115.319 48.84 114.519 49.16 113.879 49.8C113.239 50.44 112.919 51.24 112.919 52.2V53.16C112.919 54.12 113.239 54.92 113.879 55.56C114.519 56.2 115.319 56.52 116.279 56.52H118.679ZM100.919 19.08C112.631 17.8 123.191 17.16 132.599 17.16C136.951 17.16 140.439 18.472 143.063 21.096C145.687 23.72 146.999 27.208 146.999 31.56V69H132.119L131.159 64.2C128.151 66.184 125.047 67.656 121.847 68.616C118.711 69.512 116.055 69.96 113.879 69.96H110.519C106.167 69.96 102.679 68.648 100.055 66.024C97.4308 63.4 96.1188 59.912 96.1188 55.56V51.24C96.1188 46.888 97.4308 43.4 100.055 40.776C102.679 38.152 106.167 36.84 110.519 36.84H130.199V33C130.199 32.04 129.879 31.24 129.239 30.6C128.599 29.96 127.799 29.64 126.839 29.64C122.679 29.64 118.071 29.832 113.015 30.216C108.023 30.6 103.991 30.888 100.919 31.08V19.08Z" fill="black"/>
<path d="M191.133 69C184.925 69.64 178.845 69.96 172.893 69.96C168.541 69.96 165.053 68.648 162.429 66.024C159.805 63.4 158.493 59.912 158.493 55.56V31.08H152.733V18.12H158.493L160.413 6.59997H175.293V18.12H187.293V31.08H175.293V53.16C175.293 54.12 175.613 54.92 176.253 55.56C176.893 56.2 177.693 56.52 178.653 56.52H191.133V69Z" fill="black"/>
<path d="M260.755 18.12H278.515L259.315 69H240.115L220.915 18.12H238.675L249.715 52.68L260.755 18.12Z" fill="black"/>
<path d="M333.265 54.6C333.265 59.4 331.889 63.176 329.137 65.928C326.449 68.616 322.705 69.96 317.905 69.96H295.825C291.025 69.96 287.249 68.616 284.497 65.928C281.809 63.176 280.465 59.4 280.465 54.6V32.52C280.465 27.72 281.809 23.976 284.497 21.288C287.249 18.536 291.025 17.16 295.825 17.16H317.905C322.705 17.16 326.449 18.536 329.137 21.288C331.889 23.976 333.265 27.72 333.265 32.52V54.6ZM316.465 33.96C316.465 31.4 315.185 30.12 312.625 30.12H301.105C298.545 30.12 297.265 31.4 297.265 33.96V53.16C297.265 55.72 298.545 57 301.105 57H312.625C315.185 57 316.465 55.72 316.465 53.16V33.96Z" fill="black"/>
<path d="M367.814 69C363.526 69.64 359.43 69.96 355.526 69.96C351.686 69.96 348.454 68.648 345.83 66.024C343.206 63.4 341.894 59.912 341.894 55.56V1.79996H358.694V53.16C358.694 54.12 359.014 54.92 359.654 55.56C360.294 56.2 361.094 56.52 362.054 56.52H367.814V69Z" fill="black"/>
<path d="M400.439 69C396.151 69.64 392.055 69.96 388.151 69.96C384.311 69.96 381.079 68.648 378.455 66.024C375.831 63.4 374.519 59.912 374.519 55.56V1.79996H391.319V53.16C391.319 54.12 391.639 54.92 392.279 55.56C392.919 56.2 393.719 56.52 394.679 56.52H400.439V69Z" fill="black"/>
<path d="M426.824 29.16C424.264 29.16 422.984 30.44 422.984 33V38.28H439.304V33C439.304 30.44 438.024 29.16 435.464 29.16H426.824ZM454.184 68.04C441.832 69.32 430.632 69.96 420.584 69.96C416.232 69.96 412.744 68.648 410.12 66.024C407.496 63.4 406.184 59.912 406.184 55.56V32.52C406.184 27.72 407.528 23.976 410.216 21.288C412.968 18.536 416.744 17.16 421.544 17.16H440.744C445.544 17.16 449.288 18.536 451.976 21.288C454.728 23.976 456.104 27.72 456.104 32.52V50.28H422.984V54.12C422.984 55.08 423.304 55.88 423.944 56.52C424.584 57.16 425.384 57.48 426.344 57.48C432.68 57.48 441.96 57 454.184 56.04V68.04Z" fill="black"/>
<path d="M477.209 86.28C473.817 86.28 469.657 85.96 464.729 85.32V72.84H473.369C475.801 72.84 477.369 72.168 478.073 70.824C478.841 69.48 478.713 67.592 477.689 65.16L458.009 18.12H475.769L487.769 50.76L497.849 18.12H515.609L496.409 70.92C494.553 75.976 492.153 79.784 489.209 82.344C486.265 84.968 482.265 86.28 477.209 86.28Z" fill="black"/>
<path d="M552.599 33.48C552.599 32.52 552.279 31.72 551.639 31.08C550.999 30.44 550.199 30.12 549.239 30.12H546.839C544.151 30.12 541.815 30.248 539.831 30.504C537.911 30.76 536.407 30.952 535.319 31.08V56.04H548.759C551.319 56.04 552.599 54.76 552.599 52.2V33.48ZM535.319 19.08C541.527 17.8 546.967 17.16 551.639 17.16H554.999C559.351 17.16 562.839 18.472 565.463 21.096C568.087 23.72 569.399 27.208 569.399 31.56V53.64C569.399 58.44 568.023 62.216 565.271 64.968C562.583 67.656 558.839 69 554.039 69H518.519V1.79996H535.319V19.08Z" fill="black"/>
<path d="M598.21 56.52C601.602 56.52 605.442 55.88 609.73 54.6V48.84H595.81C594.85 48.84 594.05 49.16 593.41 49.8C592.77 50.44 592.45 51.24 592.45 52.2V53.16C592.45 54.12 592.77 54.92 593.41 55.56C594.05 56.2 594.85 56.52 595.81 56.52H598.21ZM580.45 19.08C592.162 17.8 602.722 17.16 612.13 17.16C616.482 17.16 619.97 18.472 622.594 21.096C625.218 23.72 626.53 27.208 626.53 31.56V69H611.65L610.69 64.2C607.682 66.184 604.578 67.656 601.378 68.616C598.242 69.512 595.586 69.96 593.41 69.96H590.05C585.698 69.96 582.21 68.648 579.586 66.024C576.962 63.4 575.65 59.912 575.65 55.56V51.24C575.65 46.888 576.962 43.4 579.586 40.776C582.21 38.152 585.698 36.84 590.05 36.84H609.73V33C609.73 32.04 609.41 31.24 608.77 30.6C608.13 29.96 607.33 29.64 606.37 29.64C602.21 29.64 597.602 29.832 592.546 30.216C587.554 30.6 583.522 30.888 580.45 31.08V19.08Z" fill="black"/>
<path d="M661.064 69C656.776 69.64 652.68 69.96 648.776 69.96C644.936 69.96 641.704 68.648 639.08 66.024C636.456 63.4 635.144 59.912 635.144 55.56V1.79996H651.944V53.16C651.944 54.12 652.264 54.92 652.904 55.56C653.544 56.2 654.344 56.52 655.304 56.52H661.064V69Z" fill="black"/>
<path d="M693.689 69C689.401 69.64 685.305 69.96 681.401 69.96C677.561 69.96 674.329 68.648 671.705 66.024C669.081 63.4 667.769 59.912 667.769 55.56V1.79996H684.569V53.16C684.569 54.12 684.889 54.92 685.529 55.56C686.169 56.2 686.969 56.52 687.929 56.52H693.689V69Z" fill="black"/>
<path d="M121.453 96H253.342L210.649 143H1L121.453 96Z" stroke="black" stroke-width="5"/>
<path d="M565.148 96H440.12L482.812 143H711L565.148 96Z" stroke="black" stroke-width="5"/>
</svg>
